<?xml version="1.0" encoding="utf-8"?>
<!-- Generator: Adobe Illustrator 16.0.0, SVG Export Plug-In . SVG Version: 6.00 Build 0)  -->
<!DOCTYPE svg PUBLIC "-//W3C//DTD SVG 1.1//EN" "http://www.w3.org/Graphics/SVG/1.1/DTD/svg11.dtd">
<svg version="1.1" id="Capa_1" xmlns="http://www.w3.org/2000/svg" xmlns:xlink="http://www.w3.org/1999/xlink"
     width="100%" height="auto" 
     viewBox="100 100 824 824" 
     preserveAspectRatio="xMidYMid meet">
<path fill="#28596C" d="M486.031,294.636c0.842-0.013,1.684-0.026,2.55-0.039c0.912-0.007,1.823-0.015,2.763-0.022
	c0.937-0.008,1.874-0.016,2.84-0.024c1.987-0.014,3.975-0.024,5.962-0.032c3.031-0.018,6.062-0.062,9.093-0.105
	c1.931-0.01,3.861-0.019,5.793-0.025c0.902-0.018,1.807-0.035,2.736-0.053c6.842,0.023,10.467,1.837,15.436,6.667
	c3.588,5.767,4.033,12.154,3.75,18.813c0.736,0.238,1.475,0.477,2.234,0.723c3.174,1.466,4.744,3.076,7.016,5.715
	c1.027,1.174,1.027,1.174,2.078,2.371c3.66,4.798,2.791,10.255,2.805,16.039c0.555,4.737,3.172,7.879,5.973,11.614
	c2.885,3.866,5.326,7.982,7.832,12.101c4.93,8.039,9.961,16.006,15.063,23.938c5.529,8.606,10.979,17.255,16.344,25.964
	c4.996,8.104,10.076,16.152,15.172,24.193c2.498,3.945,4.99,7.895,7.484,11.843c3.08,4.879,6.162,9.759,9.246,14.637
	c0.801,1.269,0.801,1.269,1.619,2.563c1.012,1.603,2.025,3.206,3.039,4.809c3.045,4.821,6.076,9.652,9.096,14.492
	c3.48-4.258,6.719-8.667,9.938-13.125c0.842-1.164,0.842-1.164,1.699-2.352c4.836-6.722,9.521-13.541,14.135-20.417
	c0.512-0.756,1.021-1.512,1.549-2.29c0.668-0.999,0.668-0.999,1.352-2.018c1.342-1.818,2.588-3.351,4.328-4.799
	c3.93-0.5,6.1-0.6,9.438,1.625c2.107,3.204,2.078,4.554,1.563,8.375c-1.648,3.187-3.713,6.035-5.813,8.938
	c-0.59,0.837-1.18,1.674-1.787,2.536c-1.783,2.521-3.588,5.026-5.4,7.526c-0.508,0.699-1.014,1.399-1.535,2.12
	c-4.086,5.629-8.193,11.236-12.441,16.743c-0.947,1.254-1.893,2.508-2.836,3.762c-0.453,0.568-0.904,1.137-1.369,1.722
	c-1.396,1.788-1.396,1.788-2.818,4.653c1.119,3.779,3.076,6.923,5.188,10.23c0.615,0.968,1.23,1.935,1.867,2.932
	c0.963,1.497,0.963,1.497,1.945,3.025c0.963,1.515,0.963,1.515,1.945,3.061c3.18,5.149,3.18,5.149,7.055,9.752
	c0.568-0.9,0.568-0.9,1.15-1.819c8.354-13.174,16.828-26.259,25.475-39.243c0.424-0.639,0.848-1.278,1.285-1.937
	c13.979-21.035,13.979-21.035,19.09-23.001c3.396,0,4.689,0.728,7.244,2.968c3.652,3.776,6.438,8.183,9.342,12.54
	c0.619,0.921,1.238,1.843,1.877,2.792c1.977,2.938,3.943,5.882,5.912,8.825c1.314,1.956,2.629,3.912,3.945,5.867
	c1.275,1.9,2.551,3.802,3.828,5.703c0.582,0.868,1.164,1.736,1.764,2.631c3.572,5.346,7.057,10.742,10.496,16.174
	c1.953,3.068,3.949,6.103,5.967,9.129c0.559,0.84,0.559,0.84,1.129,1.697c0.775,1.163,1.553,2.327,2.33,3.49
	c1.166,1.747,2.33,3.495,3.494,5.244c0.764,1.147,1.529,2.296,2.297,3.443c0.369,0.557,0.74,1.114,1.121,1.688
	c2.852,4.267,5.848,8.412,8.941,12.507c1.611,2.826,2.107,5.06,2.313,8.301c-2.063,3.375-2.063,3.375-5,6c-3,0.688-3,0.688-6,0
	c-4.252-3.7-7.078-7.905-10.027-12.633c-0.973-1.528-1.945-3.056-2.918-4.583c-0.502-0.789-1.004-1.578-1.521-2.391
	c-2.506-3.91-5.084-7.773-7.662-11.636c-0.521-0.779-1.041-1.559-1.576-2.361c-1.619-2.425-3.238-4.849-4.857-7.271
	c-1.137-1.702-2.273-3.405-3.41-5.107c-2.268-3.396-4.533-6.79-6.801-10.185c-4.23-6.333-8.453-12.67-12.678-19.007
	c-1.842-2.764-3.684-5.527-5.525-8.291c-1.008-1.512-2.016-3.023-3.023-4.535c-6.311,9.427-12.557,18.895-18.791,28.372
	c-1.641,2.492-3.281,4.983-4.922,7.476c-1.074,1.632-2.148,3.263-3.221,4.895c-0.521,0.79-1.043,1.58-1.578,2.395
	c-2.422,3.684-4.824,7.376-7.174,11.106c-0.41,0.65-0.82,1.3-1.244,1.97c-1.09,1.73-2.17,3.466-3.252,5.202
	c-1.818,2.585-1.818,2.585-4.818,4.585c-3.375,0.438-3.375,0.438-7,0c-4.764-3.95-7.725-8.957-10.938-14.188
	c-0.527-0.844-1.053-1.688-1.594-2.558c-3.549-5.715-7.068-11.45-10.469-17.255c-1.604,1.118-1.604,1.118-3,3
	c-0.434,2.927-0.434,2.927-0.438,6.188c-0.498,8.278-2.363,13.02-8.438,18.688c-5.275,4.265-10.096,5.611-16.82,5.441
	c-6.406-0.88-11.174-4.495-15.305-9.316c-0.744-0.805-1.486-1.608-2.25-2.438c-1.922-3.912-1.754-5.495-1.625-9.75
	c-0.422-10.213-7.16-16.936-13.352-24.589c-2.404-3.012-4.629-6.13-6.836-9.286c-0.785-1.106-1.57-2.212-2.355-3.316
	c-0.406-0.57-0.811-1.14-1.229-1.728c-3.273-4.577-6.582-9.127-9.891-13.679c-2.91-4.019-5.744-8.064-8.463-12.215
	c-0.764,0.33-1.527,0.66-2.313,1c-6.498,1.762-12.961,2.241-19.063-0.938c-0.586-0.359-1.172-0.72-1.773-1.09
	c-3.346-1.757-5.973-2.17-9.676-1.339c-1.016,0.35-2.033,0.7-3.078,1.062c-1.133,0.384-2.264,0.769-3.43,1.164
	c-1.189,0.418-2.38,0.835-3.605,1.266c-1.216,0.414-2.432,0.829-3.684,1.256c-6.227,2.132-12.407,4.362-18.566,6.682
	c-4.942,1.772-8.592,2.776-13.813,1.938c-5.601-2.678-9.556-7.434-13.828-11.855c-1.982-2.179-1.982-2.179-4.172-3.145
	c-0.269,0.715-0.537,1.43-0.814,2.167c-1.204,2.876-2.604,5.47-4.17,8.165c-0.599,1.034-1.197,2.068-1.814,3.134
	c-0.966,1.656-0.966,1.656-1.951,3.347c-0.674,1.159-1.346,2.318-2.019,3.478c-1.733,2.987-3.472,5.973-5.211,8.957
	c-1.605,2.757-3.208,5.517-4.81,8.276c-5.121,8.808-10.254,17.605-15.527,26.322c-2.611,4.332-5.177,8.69-7.73,13.057
	c-0.368,0.629-0.736,1.257-1.115,1.904c-1.852,3.166-3.701,6.334-5.549,9.503c-1.736,2.977-3.483,5.947-5.238,8.913
	c-0.713,1.206-1.425,2.413-2.134,3.621c-1.057,1.795-2.124,3.582-3.194,5.367c-0.62,1.042-1.24,2.084-1.879,3.157
	c-1.783,2.545-3.195,4.044-5.844,5.632c-2.938,0.5-2.938,0.5-6,0c-4.348-3.885-7.946-8.429-11.625-12.938
	c-0.607-0.74-1.214-1.479-1.839-2.242c-5.61-6.863-11.1-13.819-16.536-20.82c-4.359,4.995-7.204,10.674-10.289,16.494
	c-4.229,7.814-4.229,7.814-7.711,10.506c-4.872,0.958-4.872,0.958-8,0c-2.842-2.301-4.844-5.067-7-8
	c-1.095-1.417-2.193-2.83-3.293-4.242c-0.61-0.783-1.221-1.566-1.85-2.374c-0.92-1.18-0.92-1.18-1.857-2.384
	c-1.12-1.441-2.24-2.883-3.359-4.324c-1.131-1.454-2.261-2.909-3.391-4.363c-0.899-1.156-0.899-1.156-1.816-2.336
	c-4.33-5.568-8.679-11.12-13.058-16.649c-1.891-2.396-3.682-4.785-5.376-7.327c-4.533,6.696-8.857,13.508-13.125,20.375
	c-1.324,2.124-2.648,4.248-3.973,6.371c-0.655,1.051-1.311,2.101-1.985,3.183c-2.815,4.51-5.644,9.012-8.479,13.509
	c-0.464,0.737-0.928,1.475-1.405,2.233c-2.364,3.746-4.758,7.472-7.185,11.177c-0.474,0.724-0.946,1.446-1.434,2.191
	c-1.367,1.896-2.61,3.474-4.414,4.961c-3.932,0.5-6.101,0.6-9.438-1.625c-2.133-3.241-2.105-4.494-1.563-8.375
	c1.798-3.584,4.018-6.861,6.25-10.188c1.297-1.984,2.594-3.969,3.891-5.953c0.652-0.989,1.306-1.979,1.979-2.998
	c2.675-4.069,5.284-8.179,7.881-12.299c0.713-1.126,0.713-1.126,1.44-2.274c4.72-7.48,9.296-15.049,13.841-22.638
	c7.955-13.194,7.955-13.194,12.719-14.65c6.318-0.611,8.842,0,14,4c2.139,2.213,4.039,4.58,5.938,7
	c0.55,0.688,1.1,1.377,1.666,2.086c5.781,7.291,11.343,14.751,16.889,22.223c3.433,4.618,6.955,9.164,10.508,13.691
	c1.653-2.745,3.296-5.497,4.938-8.25c0.468-0.777,0.937-1.555,1.42-2.355c0.447-0.754,0.896-1.508,1.357-2.285
	c0.413-0.691,0.827-1.383,1.253-2.095c1.057-2.063,1.756-3.71,2.032-6.015c-1.571-2.233-3.106-4.126-4.938-6.125
	c-1.029-1.167-2.057-2.335-3.082-3.504c-0.511-0.574-1.021-1.147-1.546-1.739c-2.589-2.944-5.021-6.007-7.438-9.093
	c-1.48-1.882-2.993-3.737-4.523-5.578c-0.847-1.049-1.691-2.099-2.535-3.148c-0.775-0.942-1.55-1.885-2.348-2.855
	c-2.045-3.802-1.659-5.843-0.59-9.957c1.625-2,1.625-2,4-3c4.506,0.091,6.453,0.496,9.809,3.59c0.895,1.101,1.771,2.218,2.629,3.348
	c0.703,0.878,0.703,0.878,1.42,1.774c1.397,1.75,2.771,3.518,4.143,5.288c1.436,1.793,2.872,3.585,4.313,5.375
	c0.573,0.729,1.146,1.459,1.738,2.211c2.581,3.197,5.262,6.306,7.949,9.414c0.411-0.747,0.822-1.495,1.246-2.266
	c13.32-24.198,26.729-48.339,40.574-72.242c0.55-0.959,1.1-1.919,1.667-2.907c0.914-1.563,1.855-3.112,2.843-4.631
	c2.734-4.27,2.948-6.981,2.232-11.954c-0.829-8.254,0.499-11.777,5.688-18.25c3.967-4.265,7.509-6.419,13.426-7.023
	c7.116-0.25,11.509,0.793,16.949,5.586c3.202,3.624,5.838,7.076,7.375,11.688c-0.119,0.668-0.237,1.335-0.359,2.023
	c-0.511,3.071-0.484,4.945,0.359,7.977c2.905,3.895,6.56,7.072,10.156,10.313c0.938,0.887,1.876,1.773,2.844,2.688
	c0,0.66,0,1.32,0,2c3.301-3.107,5.295-6.769,7.5-10.688c5.182-9.074,10.475-18.079,15.813-27.063
	c0.408-0.688,0.817-1.377,1.239-2.087c5.334-8.977,10.706-17.93,16.136-26.851c0.845-1.397,0.845-1.397,1.706-2.822
	c2.336-3.848,4.687-7.66,7.243-11.365c4.407-6.523,5.998-10.581,5.48-18.477c-0.178-4.013,0.738-6.27,2.883-9.648
	c2.32-1.947,4.65-3.787,7.137-5.52c2.863-3.296,2.863-3.296,1.863-12.48c-11.221,0-22.44,0-34,0c-0.66,1.65-1.32,3.3-2,5
	c-0.69,1.364-1.405,2.716-2.145,4.055c-0.423,0.768-0.846,1.536-1.281,2.326c-0.687,1.235-0.687,1.235-1.387,2.494
	c-0.482,0.871-0.965,1.743-1.461,2.641c-5.316,9.585-10.698,19.133-16.121,28.658c-1.596,2.809-3.183,5.622-4.77,8.436
	c-0.987,1.735-1.974,3.469-2.961,5.203c-0.45,0.801-0.899,1.601-1.361,2.426c-0.63,1.099-0.63,1.099-1.271,2.219
	c-0.363,0.639-0.726,1.278-1.099,1.937c-1.144,1.606-1.144,1.606-4.144,3.606c-4.094,0.623-5.543,0.331-8.938-2.125
	c-2.063-2.875-2.063-2.875-1.884-5.694c0.879-3.407,2.111-5.912,3.892-8.942c0.963-1.659,0.963-1.659,1.945-3.352
	c0.344-0.582,0.687-1.165,1.041-1.764c1.833-3.107,3.638-6.232,5.447-9.353c0.372-0.641,0.745-1.282,1.13-1.943
	c4.528-7.797,8.875-15.694,13.228-23.591c2.923-5.291,5.867-10.568,8.865-15.817c0.548-0.964,1.097-1.928,1.662-2.921
	C475.666,298.157,479.781,294.719,486.031,294.636z M522.953,334.813c-1.223,3.514-1.248,5.307,0,8.813
	c1.928,2.49,1.928,2.49,5.438,3.188c3.434,0.201,3.434,0.201,6-0.875c2.186-2.975,2.176-5.398,2.023-9.027
	c-0.305-2.364-0.305-2.364-2.773-4.16C529.071,331.156,526.694,331.859,522.953,334.813z M518.953,357.813
	c-7.737,11.627-14.771,23.666-21.862,35.692c-5.4,9.151-10.889,18.25-16.364,27.355c-1.772,2.95-3.541,5.902-5.309,8.855
	c-0.555,0.925-1.108,1.85-1.68,2.803c-1.036,1.73-2.071,3.462-3.107,5.193c-0.457,0.763-0.914,1.526-1.385,2.313
	c-0.397,0.663-0.794,1.326-1.203,2.009c-0.991,1.618-2.038,3.201-3.09,4.78c0.327,3.197,1.451,4.816,3.723,7.016
	c0.538,0.528,1.076,1.057,1.631,1.602c0.563,0.539,1.127,1.077,1.709,1.633c0.567,0.555,1.135,1.108,1.721,1.68
	c1.398,1.363,2.807,2.718,4.217,4.07c1.059-0.353,2.118-0.706,3.209-1.069c12.93-4.311,25.86-8.621,38.791-12.931
	c0.086-0.641,0.172-1.281,0.262-1.941c1.104-6.805,2.754-12.129,8.48-16.34c5.588-3.358,10.756-4.546,17.258-3.719
	c6.148,1.911,10.502,5.643,14,11c1.826,3.685,2.023,5.748,1.375,9.75c-0.148,8.514,5.926,14.575,10.883,20.981
	c2.834,3.693,5.529,7.485,8.242,11.269c1.082,1.496,2.166,2.992,3.25,4.488c4.246,5.88,8.42,11.81,12.594,17.742
	c2.533,3.603,5.092,7.188,7.656,10.77c0.607-0.153,1.217-0.308,1.844-0.466c7.117-1.764,13.271-2.682,20.156,0.466
	c0.988,0,1.979,0,3,0c2.447-2.631,2.447-2.631,4-6c-1.127-3.857-3.168-7.107-5.273-10.508c-0.982-1.59-0.982-1.59-1.982-3.211
	c-0.707-1.136-1.414-2.271-2.119-3.406c-0.729-1.174-1.455-2.348-2.182-3.521c-8.395-13.548-16.91-27.013-25.592-40.379
	c-3.244-5.008-6.398-10.065-9.508-15.158c-8.121-13.266-16.418-26.43-24.768-39.553c-2.889-4.55-5.719-9.131-8.514-13.74
	c-0.676-1.103-1.35-2.206-2.043-3.342c-1.326-2.17-2.641-4.345-3.945-6.527c-0.604-0.981-1.205-1.963-1.824-2.975
	c-0.797-1.319-0.797-1.319-1.609-2.665c-1.473-2.129-1.473-2.129-3.656-2.87c-2.197-0.288-2.197-0.288-4.984,0.855
	c-1.789,0.119-3.584,0.175-5.375,0.188c-1.404,0.021-1.404,0.021-2.836,0.043C523.791,359.799,521.629,359.043,518.953,357.813z
	 M412.578,410.375c-2.225,3.337-2.126,5.506-1.625,9.438c1.602,2.671,2.899,2.968,5.875,3.938c3.194,0.307,3.194,0.307,6-1.375
	c2.208-2.663,2.511-3.338,2.688-6.625c-0.206-3.848-0.206-3.848-2.188-5.938C419.244,408.093,416.338,407.901,412.578,410.375z
	 M426.25,435.367c-3.948,1.73-5.855,1.263-10.047,0.57c-3.743-0.202-3.743-0.202-7.25,0.875c-3.859,4.188-6.07,9.002-8.539,14.098
	c-2.551,5.065-5.444,9.938-8.289,14.842c-1.75,3.024-3.476,6.063-5.203,9.1c-2.433,4.269-4.869,8.535-7.313,12.797
	c-5.215,9.097-10.387,18.213-15.449,27.396c-0.379,0.687-0.758,1.373-1.148,2.081c-0.35,0.641-0.699,1.281-1.06,1.941
	c-0.886,1.548-1.887,3.029-2.901,4.496c-1.35,2.144-1.35,2.144-0.59,4.168c2.049,2.859,4.168,5.649,6.367,8.395
	c0.715,0.901,0.715,0.901,1.444,1.821c1.556,1.958,3.117,3.912,4.681,5.866c1.131,1.418,2.263,2.836,3.395,4.254
	c2.863,3.586,5.732,7.167,8.605,10.746c2.148-2.77,4.003-5.587,5.758-8.621c0.534-0.92,1.068-1.841,1.618-2.788
	c0.577-1,1.154-1.999,1.749-3.028c1.264-2.179,2.527-4.357,3.793-6.535c0.495-0.854,0.495-0.854,1-1.726
	c2.407-4.148,4.828-8.288,7.258-12.423c0.349-0.595,0.698-1.189,1.059-1.803c0.71-1.209,1.421-2.418,2.131-3.627
	c6.56-11.166,13.059-22.364,19.513-33.592c3.34-5.8,6.717-11.571,10.185-17.295c3.49-5.765,6.767-11.617,9.938-17.563
	c-2.617-2.675-5.245-5.338-7.875-8c-1.12-1.145-1.12-1.145-2.262-2.313c-0.716-0.722-1.432-1.443-2.168-2.188
	c-0.66-0.67-1.32-1.341-2-2.031C429.99,432.978,429.275,433.627,426.25,435.367z M535.953,441.813c-2.314,3.47-2.426,4.922-2,9
	c1.551,2.369,2.699,2.897,5.375,3.813c3.117,0.223,4.875-0.362,7.625-1.813c1.523-3.05,1.234-5.643,1-9
	c-1.441-2.159-2.52-2.792-4.875-3.813C540.192,439.745,538.496,440.474,535.953,441.813z M612.141,524.813
	c-2.49,1.929-2.49,1.929-3.188,5.438c-0.244,3.454-0.244,3.454,1.063,5.938c2.67,2.241,4.465,2.556,7.938,2.625
	c2.326-1.138,4.168-2.168,6-4c-0.152-5.596-0.152-5.596-3-10C617.487,523.812,615.563,523.596,612.141,524.813z"/>
<path fill="#347B67" d="M753.438,444.688c3.681,1.356,4.23,1.779,6.375,4.781c0.521,0.726,1.041,1.452,1.577,2.2
	c2.773,4.017,5.486,8.068,8.173,12.144c8.608,12.99,17.326,25.906,26.049,38.819C803.782,514.728,811.92,526.844,820,539
	c0.702,1.057,1.404,2.113,2.128,3.202c0.619,0.931,1.237,1.862,1.876,2.821c5.641,8.485,11.293,16.962,17.031,25.383
	c0.636,0.935,0.636,0.935,1.285,1.888c2.065,3.033,4.135,6.063,6.209,9.09c12.051,17.632,12.051,17.632,13.158,22.866
	c-0.991,3.964-2.835,5.829-5.688,8.75c-3.021,1.511-6.145,1.148-9.458,1.147c-0.778,0.003-1.557,0.007-2.358,0.011
	c-2.622,0.011-5.243,0.015-7.865,0.019c-1.874,0.007-3.748,0.013-5.621,0.021c-5.102,0.017-10.203,0.027-15.305,0.036
	c-3.185,0.005-6.37,0.011-9.555,0.018c-9.96,0.019-19.919,0.033-29.879,0.041c-11.508,0.01-23.015,0.036-34.522,0.077
	c-8.888,0.029-17.775,0.045-26.663,0.048c-5.312,0.002-10.622,0.012-15.934,0.036c-4.996,0.023-9.992,0.028-14.988,0.018
	c-1.835,0-3.67,0.006-5.504,0.02c-2.504,0.018-5.006,0.011-7.509-0.003c-0.728,0.012-1.455,0.022-2.204,0.033
	c-4.808-0.061-7.278-1.084-10.635-4.521c-1-2.438-1-2.438-1-5c1.199-2.715,2.191-4.451,4.663-6.13
	c3.246-1.209,6.073-1.115,9.537-1.11c0.727-0.002,1.452-0.004,2.2-0.006c2.434-0.003,4.867,0.008,7.301,0.019
	c1.745,0.001,3.489,0.001,5.233,0c4.737-0.001,9.475,0.011,14.212,0.024c4.95,0.013,9.9,0.014,14.851,0.017
	c9.374,0.006,18.749,0.022,28.123,0.043c10.673,0.021,21.345,0.033,32.017,0.043c21.954,0.021,43.908,0.056,65.863,0.101
	c-0.955-1.438-1.911-2.876-2.867-4.313c-0.531-0.8-1.063-1.601-1.611-2.426c-1.859-2.762-3.807-5.449-5.771-8.136
	c-7.52-10.4-14.506-21.181-21.596-31.876c-2.729-4.116-5.469-8.226-8.211-12.334c-1.24-1.859-2.479-3.721-3.717-5.582
	c-7.448-11.202-14.994-22.34-22.521-33.489c-1.89-2.798-3.778-5.596-5.666-8.395c-0.608-0.9-1.217-1.802-1.843-2.729
	c-4.035-5.982-8.05-11.979-12.023-18.002c-2.839-4.283-5.85-8.408-8.993-12.472c-1.543-2.937-1.527-4.973-1.18-8.246
	C747.597,446.301,748.894,445.101,753.438,444.688z"/>
<path fill="#1A436D" d="M312.163,597.745c1.241-0.009,1.241-0.009,2.506-0.018c0.903,0.004,1.807,0.008,2.737,0.012
	c0.964-0.004,1.928-0.008,2.92-0.012c3.237-0.01,6.475-0.006,9.712-0.002c2.317-0.005,4.636-0.01,6.953-0.016
	c6.302-0.014,12.603-0.014,18.904-0.012c5.257,0.001,10.513-0.004,15.769-0.009c13.107-0.012,26.214-0.011,39.32-0.004
	c11.384,0.005,22.768-0.006,34.152-0.025c11.688-0.02,23.375-0.027,35.063-0.023c6.563,0.002,13.124-0.001,19.687-0.015
	c6.17-0.013,12.34-0.011,18.51,0.002c2.267,0.003,4.533,0,6.8-0.009c3.09-0.01,6.18-0.002,9.27,0.011
	c1.352-0.012,1.352-0.012,2.73-0.022c6,0.052,9.447,1.04,13.804,5.396c0.563,6.195,0.563,6.195-1.313,8.875
	c-2.879,1.919-5.4,2.251-8.76,2.259c-1.248,0.007-1.248,0.007-2.521,0.014c-0.914,0-1.828,0-2.77,0
	c-0.971,0.003-1.941,0.007-2.941,0.011c-3.269,0.011-6.537,0.015-9.805,0.019c-2.337,0.007-4.674,0.013-7.012,0.021
	c-6.359,0.017-12.719,0.027-19.078,0.036c-3.97,0.005-7.94,0.011-11.91,0.018c-10.991,0.017-21.981,0.031-32.973,0.038
	c-2.852,0.002-5.703,0.004-8.555,0.006c-0.709,0.001-1.418,0.001-2.147,0.002c-11.487,0.008-22.976,0.033-34.463,0.065
	c-11.792,0.033-23.583,0.052-35.375,0.055c-6.622,0.002-13.243,0.012-19.865,0.036c-6.227,0.023-12.452,0.028-18.679,0.018
	c-2.288,0-4.576,0.006-6.863,0.02c-3.119,0.018-6.236,0.011-9.354-0.003c-0.909,0.012-1.819,0.022-2.756,0.034
	c-4.138-0.043-6.308-0.18-9.899-2.399c-2.31-2.499-2.961-3.72-2.961-7.122C303.348,599.685,306.427,597.753,312.163,597.745z"/>
<path fill="#1A4172" d="M244.063,480.188c4.256,1.177,5.664,3.093,7.938,6.813c-0.183,5.215-2.44,8.684-5.375,12.813
	c-0.92,1.335-1.837,2.671-2.754,4.008c-0.477,0.688-0.952,1.377-1.442,2.087c-2.312,3.385-4.525,6.832-6.741,10.28
	c-0.927,1.438-1.854,2.875-2.781,4.313c-0.71,1.101-0.71,1.101-1.434,2.223c-1.518,2.346-3.041,4.688-4.566,7.027
	c-5.588,8.57-11.128,17.165-16.594,25.813c-6.313,9.982-12.849,19.81-19.448,29.604c-0.734,1.093-1.468,2.185-2.224,3.311
	c-0.982,1.455-0.982,1.455-1.983,2.94c-1.386,2.159-2.536,4.283-3.657,6.583c1.089-0.009,2.178-0.018,3.3-0.027
	c10.271-0.081,20.54-0.141,30.811-0.18c5.279-0.021,10.56-0.05,15.839-0.095c5.097-0.044,10.192-0.067,15.289-0.078
	c1.943-0.007,3.887-0.021,5.83-0.043c2.725-0.029,5.447-0.033,8.172-0.031c0.802-0.015,1.603-0.028,2.429-0.044
	c5.207,0.039,8.231,0.996,12.331,4.498c1.125,2.938,1.125,2.938,1,6c-1.771,2.747-3.063,4.531-6,6
	c-1.354,0.1-2.715,0.14-4.072,0.147c-0.853,0.007-1.705,0.014-2.583,0.021c-0.938,0.003-1.875,0.005-2.84,0.008
	c-0.985,0.007-1.972,0.014-2.986,0.021c-3.272,0.02-6.544,0.031-9.815,0.041c-1.116,0.004-2.232,0.008-3.382,0.013
	c-5.907,0.021-11.814,0.035-17.722,0.044c-6.104,0.012-12.209,0.046-18.313,0.085c-4.69,0.026-9.382,0.035-14.072,0.038
	c-2.25,0.005-4.501,0.017-6.751,0.035c-3.15,0.024-6.3,0.023-9.45,0.017c-1.394,0.02-1.394,0.02-2.815,0.039
	c-5.692-0.046-8.839-0.761-13.197-4.509c-1.599-3.197-1.352-5.438-1-9c1.435-3.305,3.316-6.278,5.25-9.313
	c0.54-0.874,1.081-1.747,1.638-2.647c4.572-7.334,9.35-14.531,14.187-21.692c7.813-11.572,15.244-23.401,22.729-35.188
	c4.013-6.315,8.06-12.606,12.142-18.876c2.435-3.748,4.831-7.517,7.191-11.312c0.794-1.273,0.794-1.273,1.604-2.573
	c1.014-1.629,2.021-3.26,3.024-4.895C238.819,481.579,238.819,481.579,244.063,480.188z"/>
<path fill="#398B68" d="M731,401c7.43,5.236,12.648,11.103,15,20c1.267,8.753,0.076,15.719-5,23c-4.888,6.169-10.607,9.536-18,12
	c-10.219,0.962-19.254-0.647-27.375-7.188c-6.337-6.037-9.697-13.236-9.938-21.938c0.117-8.824,3.299-15.715,9.313-22.117
	C705.311,395.695,719.04,394.042,731,401z M706,414c-3.898,3.898-5.156,7.316-5.375,12.75c0.06,4.565,0.882,7.35,3.836,10.84
	c4.074,3.733,8.167,4.677,13.539,4.473c5.24-0.712,8.678-2.979,12-7.063c1.804-5.412,1.922-11.593-0.125-16.938
	c-3.303-3.633-6.456-5.661-11.188-7C713.965,410.982,710.215,411.864,706,414z"/>
<path fill="#1A4071" d="M297.473,439.234c3.614,2.525,6.193,5.026,8.527,8.766c0.409,0.645,0.819,1.289,1.242,1.953
	c3.89,7.244,4.129,15.816,2.063,23.699C305.936,481.932,300.08,488.189,292,492c-8.229,2.991-16.259,2.516-24.188-1.125
	C258.987,486.04,254.145,479.434,251,470c-0.879-9.364,1.045-17.597,7-25C269.236,433.593,283.081,430.967,297.473,439.234z
	 M269,453c-3.946,5.378-3.776,10.561-3,17c1.754,3.845,3.221,5.444,6.625,7.875c4.563,1.521,8.613,1.829,13.375,1.125
	c5.133-2.613,8.18-5.539,10-11c0.421-5.471-0.361-9.178-3-14c-4.611-4.381-8.466-5.362-14.648-5.281
	C274.39,449.192,272.213,450.622,269,453z"/>
<path fill="#296172" d="M594.399,597.664c1.068-0.01,1.068-0.01,2.159-0.021c1.504-0.01,3.009-0.015,4.513-0.014
	c2.29-0.005,4.577-0.041,6.867-0.079c1.466-0.006,2.932-0.01,4.398-0.012c0.678-0.015,1.356-0.028,2.055-0.044
	c4.964,0.048,7.816,1.352,11.609,4.505c1.125,2.938,1.125,2.938,1,6c-2.101,3.375-3.202,4.734-7,6
	c-2.527,0.132-5.026,0.212-7.555,0.238c-0.739,0.008-1.478,0.017-2.238,0.024c-1.563,0.014-3.124,0.024-4.686,0.032
	c-1.595,0.012-3.189,0.032-4.783,0.062c-2.307,0.043-4.611,0.06-6.918,0.069c-0.709,0.018-1.418,0.035-2.147,0.053
	c-3.595-0.016-5.544-0.396-8.6-2.353C580.646,609.637,580,608.472,580,605c1.195-2.707,2.187-4.447,4.65-6.124
	C587.883,597.671,590.993,597.675,594.399,597.664z"/>
<g>
	<path fill="#194272" d="M168.319,725.936v-83.828h22.826c6.57,0,11.64,0.538,15.208,1.614s6.485,2.974,8.751,5.692
		c2.982,3.588,4.475,8.478,4.475,14.67c0,8.912-3.021,15.897-9.063,20.957c-6.042,5.061-14.425,7.59-25.148,7.59H180.1v33.305
		H168.319z M180.1,683.625h4.814c7.061,0,12.518-1.623,16.369-4.871c3.852-3.247,5.777-7.854,5.777-13.82
		c0-4.984-1.521-8.553-4.56-10.705c-3.04-2.152-8.071-3.229-15.095-3.229H180.1V683.625z"/>
	<path fill="#194272" d="M250.561,725.936v-35.004l-27.98-48.824h13.579l21.781,37.895l23.432-37.895h11.046l-29.963,48.598v35.23
		H250.561z"/>
	<path fill="#194272" d="M304.709,725.936v-83.828h16.415l23.258,64.854l23.895-64.854h14.766v83.828h-11.158v-68.093
		l-23.083,62.485h-11.49l-22.408-62.647v68.255H304.709z"/>
	<path fill="#194272" d="M404.623,725.936v-83.828h46.842V651h-34.947v26.904h29.283v8.779h-29.283v30.359h37.383v8.893H404.623z"/>
	<path fill="#194272" d="M504.141,725.936v-83.828h11.895v83.828H504.141z"/>
	<path fill="#194272" d="M537.615,725.936v-83.828h11.668l42.197,64.734v-64.734h10.195v83.828h-11.611l-42.254-64.717v64.717
		H537.615z"/>
	<path fill="#194272" d="M618.158,724.35v-11.781c9.439,4.381,17.219,6.57,23.336,6.57c4.645,0,8.392-1.236,11.243-3.71
		c2.851-2.473,4.276-5.692,4.276-9.657c0-3.285-0.935-6.079-2.804-8.383c-1.869-2.303-5.315-4.871-10.337-7.703l-5.777-3.342
		c-7.137-4.078-12.169-7.92-15.095-11.526c-2.927-3.605-4.39-7.788-4.39-12.546c0-6.494,2.341-11.828,7.023-16.001
		c4.682-4.172,10.648-6.259,17.898-6.259c6.457,0,13.272,1.076,20.447,3.229v10.875c-8.836-3.474-15.426-5.211-19.768-5.211
		c-4.116,0-7.515,1.096-10.195,3.285c-2.682,2.19-4.021,4.947-4.021,8.27c0,2.795,0.981,5.268,2.945,7.42
		c1.963,2.152,5.551,4.721,10.762,7.703l6.004,3.398c7.25,4.116,12.31,8.006,15.18,11.668c2.869,3.663,4.305,8.063,4.305,13.197
		c0,7.288-2.682,13.141-8.043,17.559c-5.362,4.418-12.48,6.627-21.354,6.627C634.131,728.031,626.918,726.804,618.158,724.35z"/>
	<path fill="#194272" d="M685.731,725.936v-83.828h11.895v83.828H685.731z"/>
	<path fill="#194272" d="M719.205,725.936v-83.828h27.867c8.307,0,15.019,0.926,20.136,2.775c5.116,1.851,9.544,4.984,13.282,9.402
		c5.928,7.023,8.893,16.275,8.893,27.754c0,12.952-3.475,23.449-10.422,31.492c-3.776,4.418-8.147,7.59-13.112,9.516
		c-4.966,1.926-11.168,2.889-18.606,2.889H719.205z M731.1,717.043h15.236c10.875,0,18.578-2.926,23.109-8.779
		c4.871-6.23,7.307-14.594,7.307-25.092c0-9.855-2.398-17.596-7.193-23.223c-2.908-3.436-6.382-5.786-10.422-7.052
		c-4.041-1.265-10.12-1.897-18.238-1.897H731.1V717.043z"/>
	<path fill="#194272" d="M806.092,725.936v-83.828h46.842V651h-34.947v26.904h29.283v8.779h-29.283v30.359h37.383v8.893H806.092z"/>
</g>
</svg>
